<?xml version="1.0" encoding="UTF-8" standalone="no"?>
<!DOCTYPE svg PUBLIC "-//W3C//DTD SVG 1.1//EN"
 "http://www.w3.org/Graphics/SVG/1.1/DTD/svg11.dtd">
<!-- Generated by graphviz version 2.43.0 (0)
 -->
<!-- Title: MultiAppArchitecture Pages: 1 -->
<svg width="789pt" height="445pt"
 viewBox="0.00 0.00 789.00 445.00" xmlns="http://www.w3.org/2000/svg" xmlns:xlink="http://www.w3.org/1999/xlink">
<g id="graph0" class="graph" transform="scale(1 1) rotate(0) translate(4 441)">
<title>MultiAppArchitecture</title>
<polygon fill="white" stroke="transparent" points="-4,4 -4,-441 785,-441 785,4 -4,4"/>
<g id="clust1" class="cluster">
<title>cluster_legend</title>
<polygon fill="none" stroke="black" stroke-dasharray="1,5" points="8,-8 8,-243 119,-243 119,-8 8,-8"/>
<text text-anchor="middle" x="63.5" y="-229.4" font-family="Arial" font-size="12.00">Legend</text>
</g>
<g id="clust2" class="cluster">
<title>cluster_app1</title>
<polygon fill="none" stroke="grey" stroke-dasharray="5,2" points="424,-300 424,-429 773,-429 773,-300 424,-300"/>
<text text-anchor="middle" x="598.5" y="-413.8" font-family="Arial" font-size="14.00">Application Stack 1</text>
</g>
<g id="clust3" class="cluster">
<title>cluster_app2</title>
<polygon fill="none" stroke="grey" stroke-dasharray="5,2" points="424,-163 424,-292 773,-292 773,-163 424,-163"/>
<text text-anchor="middle" x="598.5" y="-276.8" font-family="Arial" font-size="14.00">Application Stack 2</text>
</g>
<!-- l1 -->
<g id="node1" class="node">
<title>l1</title>
<path fill="#ff9999" stroke="black" d="M99,-214C99,-214 28,-214 28,-214 22,-214 16,-208 16,-202 16,-202 16,-190 16,-190 16,-184 22,-178 28,-178 28,-178 99,-178 99,-178 105,-178 111,-184 111,-190 111,-190 111,-202 111,-202 111,-208 105,-214 99,-214"/>
<text text-anchor="middle" x="63.5" y="-193.5" font-family="Arial" font-size="10.00">Systemd Daemon</text>
</g>
<!-- l2 -->
<g id="node2" class="node">
<title>l2</title>
<path fill="#ffcc00" stroke="black" d="M96,-160C96,-160 31,-160 31,-160 25,-160 19,-154 19,-148 19,-148 19,-136 19,-136 19,-130 25,-124 31,-124 31,-124 96,-124 96,-124 102,-124 108,-130 108,-136 108,-136 108,-148 108,-148 108,-154 102,-160 96,-160"/>
<text text-anchor="middle" x="63.5" y="-139.5" font-family="Arial" font-size="10.00">Systemd Socket</text>
</g>
<!-- l3 -->
<g id="node3" class="node">
<title>l3</title>
<path fill="#c2f0c2" stroke="black" d="M90,-106C90,-106 37,-106 37,-106 31,-106 25,-100 25,-94 25,-94 25,-82 25,-82 25,-76 31,-70 37,-70 37,-70 90,-70 90,-70 96,-70 102,-76 102,-82 102,-82 102,-94 102,-94 102,-100 96,-106 90,-106"/>
<text text-anchor="middle" x="63.5" y="-85.5" font-family="Arial" font-size="10.00">React (Static)</text>
</g>
<!-- l4 -->
<g id="node4" class="node">
<title>l4</title>
<path fill="#add8e6" stroke="black" d="M91.5,-52C91.5,-52 35.5,-52 35.5,-52 29.5,-52 23.5,-46 23.5,-40 23.5,-40 23.5,-28 23.5,-28 23.5,-22 29.5,-16 35.5,-16 35.5,-16 91.5,-16 91.5,-16 97.5,-16 103.5,-22 103.5,-28 103.5,-28 103.5,-40 103.5,-40 103.5,-46 97.5,-52 91.5,-52"/>
<text text-anchor="middle" x="63.5" y="-31.5" font-family="Arial" font-size="10.00">Django (Logic)</text>
</g>
<!-- User -->
<g id="node5" class="node">
<title>User</title>
<ellipse fill="white" stroke="black" cx="63.5" cy="-272" rx="41.94" ry="21.43"/>
<text text-anchor="middle" x="63.5" y="-275" font-family="Arial" font-size="10.00">User</text>
<text text-anchor="middle" x="63.5" y="-264" font-family="Arial" font-size="10.00">(Browser)</text>
</g>
<!-- Nginx -->
<g id="node6" class="node">
<title>Nginx</title>
<path fill="#ff9999" stroke="black" d="M293,-290C293,-290 219,-290 219,-290 213,-290 207,-284 207,-278 207,-278 207,-266 207,-266 207,-260 213,-254 219,-254 219,-254 293,-254 293,-254 299,-254 305,-260 305,-266 305,-266 305,-278 305,-278 305,-284 299,-290 293,-290"/>
<text text-anchor="middle" x="256" y="-275" font-family="Arial" font-size="10.00">Nginx</text>
<text text-anchor="middle" x="256" y="-264" font-family="Arial" font-size="10.00">(systemd daemon)</text>
</g>
<!-- User&#45;&gt;Nginx -->
<g id="edge1" class="edge">
<title>User&#45;&gt;Nginx</title>
<path fill="none" stroke="black" d="M105.37,-272C131.97,-272 167.08,-272 196.6,-272"/>
<polygon fill="black" stroke="black" points="196.79,-275.5 206.79,-272 196.79,-268.5 196.79,-275.5"/>
<text text-anchor="middle" x="159" y="-275.8" font-family="Times,serif" font-size="14.00"> HTTP/S</text>
</g>
<!-- React1 -->
<g id="node7" class="node">
<title>React1</title>
<path fill="#c2f0c2" stroke="black" d="M503.5,-398C503.5,-398 455.5,-398 455.5,-398 449.5,-398 443.5,-392 443.5,-386 443.5,-386 443.5,-374 443.5,-374 443.5,-368 449.5,-362 455.5,-362 455.5,-362 503.5,-362 503.5,-362 509.5,-362 515.5,-368 515.5,-374 515.5,-374 515.5,-386 515.5,-386 515.5,-392 509.5,-398 503.5,-398"/>
<text text-anchor="middle" x="479.5" y="-383" font-family="Arial" font-size="10.00">React UI 1</text>
<text text-anchor="middle" x="479.5" y="-372" font-family="Arial" font-size="10.00">(Static Files)</text>
</g>
<!-- Nginx&#45;&gt;React1 -->
<g id="edge2" class="edge">
<title>Nginx&#45;&gt;React1</title>
<path fill="none" stroke="black" stroke-dasharray="1,5" d="M274.01,-290.08C286.54,-302.5 304.55,-318.57 323,-329 357.7,-348.62 401.08,-362.06 433.19,-370.19"/>
<polygon fill="black" stroke="black" points="432.66,-373.66 443.2,-372.65 434.32,-366.86 432.66,-373.66"/>
<text text-anchor="middle" x="368.5" y="-367.8" font-family="Times,serif" font-size="14.00"> direct serve</text>
</g>
<!-- Socket1 -->
<g id="node8" class="node">
<title>Socket1</title>
<path fill="#ffcc00" stroke="black" d="M515,-344C515,-344 444,-344 444,-344 438,-344 432,-338 432,-332 432,-332 432,-320 432,-320 432,-314 438,-308 444,-308 444,-308 515,-308 515,-308 521,-308 527,-314 527,-320 527,-320 527,-332 527,-332 527,-338 521,-344 515,-344"/>
<text text-anchor="middle" x="479.5" y="-329" font-family="Arial" font-size="10.00">systemd socket 1</text>
<text text-anchor="middle" x="479.5" y="-318" font-family="Arial" font-size="10.00">(/run/app1.sock)</text>
</g>
<!-- Nginx&#45;&gt;Socket1 -->
<g id="edge3" class="edge">
<title>Nginx&#45;&gt;Socket1</title>
<path fill="none" stroke="black" d="M305.06,-283.72C339.37,-292.08 385.65,-303.36 421.77,-312.17"/>
<polygon fill="black" stroke="black" points="421.13,-315.62 431.67,-314.58 422.79,-308.81 421.13,-315.62"/>
<text text-anchor="middle" x="368.5" y="-313.8" font-family="Times,serif" font-size="14.00"> proxy_pass</text>
</g>
<!-- React2 -->
<g id="node11" class="node">
<title>React2</title>
<path fill="#c2f0c2" stroke="black" d="M503.5,-261C503.5,-261 455.5,-261 455.5,-261 449.5,-261 443.5,-255 443.5,-249 443.5,-249 443.5,-237 443.5,-237 443.5,-231 449.5,-225 455.5,-225 455.5,-225 503.5,-225 503.5,-225 509.5,-225 515.5,-231 515.5,-237 515.5,-237 515.5,-249 515.5,-249 515.5,-255 509.5,-261 503.5,-261"/>
<text text-anchor="middle" x="479.5" y="-246" font-family="Arial" font-size="10.00">React UI 2</text>
<text text-anchor="middle" x="479.5" y="-235" font-family="Arial" font-size="10.00">(Static Files)</text>
</g>
<!-- Nginx&#45;&gt;React2 -->
<g id="edge6" class="edge">
<title>Nginx&#45;&gt;React2</title>
<path fill="none" stroke="black" stroke-dasharray="1,5" d="M305.06,-265.71C343.09,-260.73 395.83,-253.82 433.14,-248.94"/>
<polygon fill="black" stroke="black" points="433.77,-252.39 443.23,-247.62 432.86,-245.45 433.77,-252.39"/>
<text text-anchor="middle" x="368.5" y="-265.8" font-family="Times,serif" font-size="14.00"> direct serve</text>
</g>
<!-- Socket2 -->
<g id="node12" class="node">
<title>Socket2</title>
<path fill="#ffcc00" stroke="black" d="M515,-207C515,-207 444,-207 444,-207 438,-207 432,-201 432,-195 432,-195 432,-183 432,-183 432,-177 438,-171 444,-171 444,-171 515,-171 515,-171 521,-171 527,-177 527,-183 527,-183 527,-195 527,-195 527,-201 521,-207 515,-207"/>
<text text-anchor="middle" x="479.5" y="-192" font-family="Arial" font-size="10.00">systemd socket 2</text>
<text text-anchor="middle" x="479.5" y="-181" font-family="Arial" font-size="10.00">(/run/app2.sock)</text>
</g>
<!-- Nginx&#45;&gt;Socket2 -->
<g id="edge7" class="edge">
<title>Nginx&#45;&gt;Socket2</title>
<path fill="none" stroke="black" d="M283.08,-253.91C294.87,-246.34 309.22,-237.94 323,-232 354.66,-218.34 391.82,-207.88 421.87,-200.69"/>
<polygon fill="black" stroke="black" points="422.83,-204.06 431.78,-198.38 421.24,-197.25 422.83,-204.06"/>
<text text-anchor="middle" x="368.5" y="-235.8" font-family="Times,serif" font-size="14.00"> proxy_pass</text>
</g>
<!-- Gunicorn1 -->
<g id="node9" class="node">
<title>Gunicorn1</title>
<path fill="#ff9999" stroke="black" d="M650,-344C650,-344 576,-344 576,-344 570,-344 564,-338 564,-332 564,-332 564,-320 564,-320 564,-314 570,-308 576,-308 576,-308 650,-308 650,-308 656,-308 662,-314 662,-320 662,-320 662,-332 662,-332 662,-338 656,-344 650,-344"/>
<text text-anchor="middle" x="613" y="-329" font-family="Arial" font-size="10.00">Gunicorn 1</text>
<text text-anchor="middle" x="613" y="-318" font-family="Arial" font-size="10.00">(systemd daemon)</text>
</g>
<!-- Socket1&#45;&gt;Gunicorn1 -->
<g id="edge4" class="edge">
<title>Socket1&#45;&gt;Gunicorn1</title>
<path fill="none" stroke="black" d="M527.23,-326C535.72,-326 544.67,-326 553.45,-326"/>
<polygon fill="black" stroke="black" points="553.64,-329.5 563.64,-326 553.64,-322.5 553.64,-329.5"/>
</g>
<!-- Django1 -->
<g id="node10" class="node">
<title>Django1</title>
<path fill="#add8e6" stroke="black" d="M753,-344C753,-344 711,-344 711,-344 705,-344 699,-338 699,-332 699,-332 699,-320 699,-320 699,-314 705,-308 711,-308 711,-308 753,-308 753,-308 759,-308 765,-314 765,-320 765,-320 765,-332 765,-332 765,-338 759,-344 753,-344"/>
<text text-anchor="middle" x="732" y="-329" font-family="Arial" font-size="10.00">Django 1</text>
<text text-anchor="middle" x="732" y="-318" font-family="Arial" font-size="10.00">(App Logic)</text>
</g>
<!-- Gunicorn1&#45;&gt;Django1 -->
<g id="edge5" class="edge">
<title>Gunicorn1&#45;&gt;Django1</title>
<path fill="none" stroke="black" d="M662.26,-326C671.04,-326 680.12,-326 688.71,-326"/>
<polygon fill="black" stroke="black" points="688.87,-329.5 698.87,-326 688.87,-322.5 688.87,-329.5"/>
</g>
<!-- Gunicorn2 -->
<g id="node13" class="node">
<title>Gunicorn2</title>
<path fill="#ff9999" stroke="black" d="M650,-207C650,-207 576,-207 576,-207 570,-207 564,-201 564,-195 564,-195 564,-183 564,-183 564,-177 570,-171 576,-171 576,-171 650,-171 650,-171 656,-171 662,-177 662,-183 662,-183 662,-195 662,-195 662,-201 656,-207 650,-207"/>
<text text-anchor="middle" x="613" y="-192" font-family="Arial" font-size="10.00">Gunicorn 2</text>
<text text-anchor="middle" x="613" y="-181" font-family="Arial" font-size="10.00">(systemd daemon)</text>
</g>
<!-- Socket2&#45;&gt;Gunicorn2 -->
<g id="edge8" class="edge">
<title>Socket2&#45;&gt;Gunicorn2</title>
<path fill="none" stroke="black" d="M527.23,-189C535.72,-189 544.67,-189 553.45,-189"/>
<polygon fill="black" stroke="black" points="553.64,-192.5 563.64,-189 553.64,-185.5 553.64,-192.5"/>
</g>
<!-- Django2 -->
<g id="node14" class="node">
<title>Django2</title>
<path fill="#add8e6" stroke="black" d="M753,-207C753,-207 711,-207 711,-207 705,-207 699,-201 699,-195 699,-195 699,-183 699,-183 699,-177 705,-171 711,-171 711,-171 753,-171 753,-171 759,-171 765,-177 765,-183 765,-183 765,-195 765,-195 765,-201 759,-207 753,-207"/>
<text text-anchor="middle" x="732" y="-192" font-family="Arial" font-size="10.00">Django 2</text>
<text text-anchor="middle" x="732" y="-181" font-family="Arial" font-size="10.00">(App Logic)</text>
</g>
<!-- Gunicorn2&#45;&gt;Django2 -->
<g id="edge9" class="edge">
<title>Gunicorn2&#45;&gt;Django2</title>
<path fill="none" stroke="black" d="M662.26,-189C671.04,-189 680.12,-189 688.71,-189"/>
<polygon fill="black" stroke="black" points="688.87,-192.5 698.87,-189 688.87,-185.5 688.87,-192.5"/>
</g>
</g>
</svg>
